<?xml version="1.0" standalone="no"?>
<!DOCTYPE svg PUBLIC "-//W3C//DTD SVG 20010904//EN"
 "http://www.w3.org/TR/2001/REC-SVG-20010904/DTD/svg10.dtd">
<svg version="1.0" xmlns="http://www.w3.org/2000/svg"
 width="932.000000pt" height="932.000000pt" viewBox="0 0 932.000000 932.000000"
 preserveAspectRatio="xMidYMid meet">
<metadata>
Created by potrace 1.11, written by Peter Selinger 2001-2013
</metadata>
<g transform="translate(0.000000,932.000000) scale(0.100000,-0.100000)"
fill="#000000" stroke="none">
<path d="M3438 9242 c-13 -2 -18 -13 -18 -35 0 -18 0 -377 -1 -798 l0 -766
-861 0 -861 0 0 -880 1 -880 -37 2 c-20 0 -46 -3 -58 -7 -13 -4 -23 -4 -23 0
0 9 -135 6 -150 -3 -5 -3 -10 -3 -10 2 0 10 -133 8 -149 -1 -6 -4 -11 -3 -11
1 0 10 -134 8 -150 -2 -5 -3 -10 -3 -10 2 0 4 -81 8 -180 8 -99 0 -180 -3
-180 -6 0 -4 -15 -4 -32 0 -18 4 -62 5 -98 4 -83 -4 -70 -4 -175 0 -49 1 -100
-1 -112 -5 -13 -4 -23 -4 -23 0 0 8 -188 7 -197 -1 -7 -8 -6 -2427 1 -2435 10
-9 160 -9 174 1 6 5 12 6 12 1 0 -11 621 -11 638 0 7 4 12 4 12 -1 0 -10 372
-9 388 1 7 4 12 4 12 -1 0 -10 132 -9 148 1 7 4 12 4 12 -1 0 -9 144 -8 159 1
5 3 16 0 24 -8 12 -13 14 -134 15 -848 0 -458 1 -851 1 -873 l1 -40 857 0 858
0 2 -774 c2 -426 5 -776 7 -779 6 -6 2466 -6 2472 0 2 3 5 354 5 780 l0 776
859 -2 860 -1 1 40 c0 22 1 418 1 881 l1 841 241 -1 c133 -1 249 2 259 7 9 4
17 4 17 0 0 -10 213 -9 229 1 6 4 11 4 11 -1 0 -10 132 -9 148 1 7 4 12 4 12
-1 0 -10 133 -8 149 1 6 4 11 4 11 -1 0 -10 132 -9 148 1 7 4 12 4 12 -1 0 -9
307 -9 316 0 7 7 7 2424 0 2435 -6 9 -48 8 -64 -2 -7 -4 -12 -4 -12 1 0 10
-133 8 -149 -1 -6 -4 -11 -3 -11 1 0 10 -134 8 -150 -2 -5 -3 -10 -3 -10 2 0
4 -81 8 -180 8 -99 0 -180 -3 -180 -6 0 -4 -15 -4 -32 0 -18 4 -62 5 -98 4
-83 -4 -70 -4 -175 0 -49 1 -100 -1 -112 -5 -13 -4 -23 -4 -23 0 0 9 -135 6
-150 -3 -5 -3 -10 -3 -10 2 0 4 -44 8 -99 7 l-98 -1 0 874 c0 480 -3 876 -6
880 -9 9 -1302 7 -1316 -1 -6 -4 -11 -4 -11 1 0 4 -87 8 -192 8 l-193 0 -2
794 c-2 829 -2 823 -44 801 -9 -5 -19 -7 -23 -3 -9 9 -90 10 -103 0 -6 -4 -14
-4 -17 1 -3 5 -23 6 -45 2 -22 -4 -45 -4 -51 0 -12 7 -95 4 -109 -5 -5 -3 -12
-2 -14 2 -3 5 -31 7 -64 5 -32 -1 -62 -2 -68 -2 -5 0 -39 1 -75 3 -36 1 -70
-1 -77 -6 -7 -5 -18 -5 -25 -1 -16 10 -116 12 -145 2 -12 -4 -24 -4 -27 0 -2
4 -30 6 -63 4 -68 -3 -65 -3 -123 1 -25 1 -50 -1 -57 -6 -6 -4 -14 -4 -17 1
-3 5 -23 6 -45 2 -22 -4 -45 -4 -51 0 -12 7 -95 4 -109 -5 -5 -3 -12 -2 -14 2
-3 5 -31 7 -64 5 -32 -1 -62 -2 -68 -2 -5 0 -39 1 -75 3 -36 1 -70 -1 -77 -6
-7 -5 -18 -5 -25 -1 -16 10 -116 12 -145 2 -12 -4 -24 -4 -27 0 -2 4 -30 6
-63 4 -68 -3 -65 -3 -123 1 -25 1 -50 -1 -57 -6 -6 -4 -14 -4 -17 1 -3 5 -23
6 -45 2 -22 -4 -44 -4 -50 -1 -12 8 -100 6 -108 -2 -3 -3 -15 -2 -27 3 -13 4
-29 4 -36 0 -8 -5 -19 -6 -24 -3 -12 8 -44 10 -68 5z"/>
</g>
</svg>
